<mxfile host="app.diagrams.net" agent="Mozilla/5.0 (Windows NT 10.0; Win64; x64; rv:135.0) Gecko/20100101 Firefox/135.0" version="26.0.13" pages="2">
  <diagram id="C5RBs43oDa-KdzZeNtuy" name="Code running">
    <mxGraphModel dx="1434" dy="738" grid="1" gridSize="10" guides="1" tooltips="1" connect="1" arrows="1" fold="1" page="1" pageScale="1" pageWidth="827" pageHeight="1169" math="0" shadow="0">
      <root>
        <mxCell id="WIyWlLk6GJQsqaUBKTNV-0" />
        <mxCell id="WIyWlLk6GJQsqaUBKTNV-1" parent="WIyWlLk6GJQsqaUBKTNV-0" />
        <mxCell id="TYe0Myk3NBzi4zqEtrTh-3" value="" style="edgeStyle=orthogonalEdgeStyle;rounded=0;orthogonalLoop=1;jettySize=auto;html=1;" edge="1" parent="WIyWlLk6GJQsqaUBKTNV-1" source="TYe0Myk3NBzi4zqEtrTh-1" target="TYe0Myk3NBzi4zqEtrTh-2">
          <mxGeometry relative="1" as="geometry" />
        </mxCell>
        <mxCell id="TYe0Myk3NBzi4zqEtrTh-1" value="tests = getInput(QID)" style="rounded=1;whiteSpace=wrap;html=1;" vertex="1" parent="WIyWlLk6GJQsqaUBKTNV-1">
          <mxGeometry x="220" y="60" width="120" height="40" as="geometry" />
        </mxCell>
        <mxCell id="TYe0Myk3NBzi4zqEtrTh-5" value="" style="edgeStyle=orthogonalEdgeStyle;rounded=0;orthogonalLoop=1;jettySize=auto;html=1;" edge="1" parent="WIyWlLk6GJQsqaUBKTNV-1" source="TYe0Myk3NBzi4zqEtrTh-2" target="TYe0Myk3NBzi4zqEtrTh-4">
          <mxGeometry relative="1" as="geometry" />
        </mxCell>
        <mxCell id="TYe0Myk3NBzi4zqEtrTh-2" value="for test in tests" style="rounded=1;whiteSpace=wrap;html=1;" vertex="1" parent="WIyWlLk6GJQsqaUBKTNV-1">
          <mxGeometry x="220" y="130" width="120" height="40" as="geometry" />
        </mxCell>
        <mxCell id="TYe0Myk3NBzi4zqEtrTh-9" style="edgeStyle=orthogonalEdgeStyle;rounded=0;orthogonalLoop=1;jettySize=auto;html=1;entryX=0.5;entryY=0;entryDx=0;entryDy=0;" edge="1" parent="WIyWlLk6GJQsqaUBKTNV-1" source="TYe0Myk3NBzi4zqEtrTh-4" target="TYe0Myk3NBzi4zqEtrTh-8">
          <mxGeometry relative="1" as="geometry" />
        </mxCell>
        <mxCell id="TYe0Myk3NBzi4zqEtrTh-4" value="Request to Piston API with code and test case" style="rounded=1;whiteSpace=wrap;html=1;" vertex="1" parent="WIyWlLk6GJQsqaUBKTNV-1">
          <mxGeometry x="220" y="200" width="120" height="50" as="geometry" />
        </mxCell>
        <mxCell id="TYe0Myk3NBzi4zqEtrTh-13" value="" style="edgeStyle=orthogonalEdgeStyle;rounded=0;orthogonalLoop=1;jettySize=auto;html=1;" edge="1" parent="WIyWlLk6GJQsqaUBKTNV-1" source="TYe0Myk3NBzi4zqEtrTh-8">
          <mxGeometry relative="1" as="geometry">
            <mxPoint x="280" y="420" as="targetPoint" />
          </mxGeometry>
        </mxCell>
        <mxCell id="TYe0Myk3NBzi4zqEtrTh-21" style="edgeStyle=orthogonalEdgeStyle;rounded=0;orthogonalLoop=1;jettySize=auto;html=1;" edge="1" parent="WIyWlLk6GJQsqaUBKTNV-1">
          <mxGeometry relative="1" as="geometry">
            <mxPoint x="160" y="540" as="targetPoint" />
            <mxPoint x="280" y="325" as="sourcePoint" />
            <Array as="points">
              <mxPoint x="161" y="325" />
            </Array>
          </mxGeometry>
        </mxCell>
        <mxCell id="TYe0Myk3NBzi4zqEtrTh-8" value="Output correct?" style="rhombus;whiteSpace=wrap;html=1;" vertex="1" parent="WIyWlLk6GJQsqaUBKTNV-1">
          <mxGeometry x="240" y="285" width="80" height="80" as="geometry" />
        </mxCell>
        <mxCell id="TYe0Myk3NBzi4zqEtrTh-14" value="Yes" style="text;html=1;align=center;verticalAlign=middle;resizable=0;points=[];autosize=1;strokeColor=none;fillColor=none;" vertex="1" parent="WIyWlLk6GJQsqaUBKTNV-1">
          <mxGeometry x="280" y="378" width="40" height="30" as="geometry" />
        </mxCell>
        <mxCell id="TYe0Myk3NBzi4zqEtrTh-16" style="edgeStyle=orthogonalEdgeStyle;rounded=0;orthogonalLoop=1;jettySize=auto;html=1;entryX=1;entryY=0.75;entryDx=0;entryDy=0;" edge="1" parent="WIyWlLk6GJQsqaUBKTNV-1" source="TYe0Myk3NBzi4zqEtrTh-15" target="TYe0Myk3NBzi4zqEtrTh-2">
          <mxGeometry relative="1" as="geometry">
            <Array as="points">
              <mxPoint x="370" y="460" />
              <mxPoint x="370" y="160" />
            </Array>
          </mxGeometry>
        </mxCell>
        <mxCell id="TYe0Myk3NBzi4zqEtrTh-19" value="" style="edgeStyle=orthogonalEdgeStyle;rounded=0;orthogonalLoop=1;jettySize=auto;html=1;" edge="1" parent="WIyWlLk6GJQsqaUBKTNV-1" source="TYe0Myk3NBzi4zqEtrTh-15" target="TYe0Myk3NBzi4zqEtrTh-18">
          <mxGeometry relative="1" as="geometry" />
        </mxCell>
        <mxCell id="TYe0Myk3NBzi4zqEtrTh-15" value="Last test?" style="rhombus;whiteSpace=wrap;html=1;" vertex="1" parent="WIyWlLk6GJQsqaUBKTNV-1">
          <mxGeometry x="240" y="420" width="80" height="80" as="geometry" />
        </mxCell>
        <mxCell id="TYe0Myk3NBzi4zqEtrTh-17" value="No" style="text;html=1;align=center;verticalAlign=middle;resizable=0;points=[];autosize=1;strokeColor=none;fillColor=none;" vertex="1" parent="WIyWlLk6GJQsqaUBKTNV-1">
          <mxGeometry x="320" y="428" width="40" height="30" as="geometry" />
        </mxCell>
        <mxCell id="TYe0Myk3NBzi4zqEtrTh-18" value="Send testing successful" style="whiteSpace=wrap;html=1;" vertex="1" parent="WIyWlLk6GJQsqaUBKTNV-1">
          <mxGeometry x="220" y="540" width="120" height="60" as="geometry" />
        </mxCell>
        <mxCell id="TYe0Myk3NBzi4zqEtrTh-20" value="Yes" style="text;html=1;align=center;verticalAlign=middle;resizable=0;points=[];autosize=1;strokeColor=none;fillColor=none;" vertex="1" parent="WIyWlLk6GJQsqaUBKTNV-1">
          <mxGeometry x="280" y="500" width="40" height="30" as="geometry" />
        </mxCell>
        <mxCell id="TYe0Myk3NBzi4zqEtrTh-22" value="No" style="text;html=1;align=center;verticalAlign=middle;resizable=0;points=[];autosize=1;strokeColor=none;fillColor=none;" vertex="1" parent="WIyWlLk6GJQsqaUBKTNV-1">
          <mxGeometry x="170" y="328" width="40" height="30" as="geometry" />
        </mxCell>
        <mxCell id="TYe0Myk3NBzi4zqEtrTh-23" value="Send error message" style="whiteSpace=wrap;html=1;" vertex="1" parent="WIyWlLk6GJQsqaUBKTNV-1">
          <mxGeometry x="90" y="540" width="120" height="60" as="geometry" />
        </mxCell>
      </root>
    </mxGraphModel>
  </diagram>
  <diagram id="2E7pvvPJxF8ZSh5zLp9T" name="High level">
    <mxGraphModel dx="1258" dy="716" grid="1" gridSize="10" guides="1" tooltips="1" connect="1" arrows="1" fold="1" page="1" pageScale="1" pageWidth="827" pageHeight="1169" math="0" shadow="0">
      <root>
        <mxCell id="0" />
        <mxCell id="1" parent="0" />
        <mxCell id="3pEV3JObnZuWQEla3P30-1" value="" style="edgeStyle=orthogonalEdgeStyle;rounded=0;orthogonalLoop=1;jettySize=auto;html=1;" parent="1" source="3pEV3JObnZuWQEla3P30-7" edge="1">
          <mxGeometry relative="1" as="geometry">
            <mxPoint x="100" y="200" as="targetPoint" />
          </mxGeometry>
        </mxCell>
        <mxCell id="3pEV3JObnZuWQEla3P30-2" value="Client inputs and submits the code" style="rounded=1;whiteSpace=wrap;html=1;" parent="1" vertex="1">
          <mxGeometry x="40" y="90" width="120" height="40" as="geometry" />
        </mxCell>
        <mxCell id="3pEV3JObnZuWQEla3P30-3" value="" style="edgeStyle=orthogonalEdgeStyle;rounded=0;orthogonalLoop=1;jettySize=auto;html=1;" parent="1" source="3pEV3JObnZuWQEla3P30-2" target="3pEV3JObnZuWQEla3P30-7" edge="1">
          <mxGeometry relative="1" as="geometry">
            <mxPoint x="100" y="130" as="sourcePoint" />
            <mxPoint x="100" y="200" as="targetPoint" />
          </mxGeometry>
        </mxCell>
        <mxCell id="3pEV3JObnZuWQEla3P30-4" value="" style="edgeStyle=orthogonalEdgeStyle;rounded=0;orthogonalLoop=1;jettySize=auto;html=1;" parent="1" source="3pEV3JObnZuWQEla3P30-7" target="3pEV3JObnZuWQEla3P30-8" edge="1">
          <mxGeometry relative="1" as="geometry" />
        </mxCell>
        <mxCell id="3pEV3JObnZuWQEla3P30-5" value="No" style="edgeLabel;html=1;align=center;verticalAlign=middle;resizable=0;points=[];" parent="3pEV3JObnZuWQEla3P30-4" vertex="1" connectable="0">
          <mxGeometry x="0.0333" y="-4" relative="1" as="geometry">
            <mxPoint y="-14" as="offset" />
          </mxGeometry>
        </mxCell>
        <mxCell id="3pEV3JObnZuWQEla3P30-6" value="" style="edgeStyle=orthogonalEdgeStyle;rounded=0;orthogonalLoop=1;jettySize=auto;html=1;" parent="1" source="3pEV3JObnZuWQEla3P30-7" target="3pEV3JObnZuWQEla3P30-10" edge="1">
          <mxGeometry relative="1" as="geometry" />
        </mxCell>
        <mxCell id="3pEV3JObnZuWQEla3P30-7" value="Correct code extension?" style="rhombus;whiteSpace=wrap;html=1;" parent="1" vertex="1">
          <mxGeometry x="55" y="150" width="90" height="90" as="geometry" />
        </mxCell>
        <mxCell id="3pEV3JObnZuWQEla3P30-8" value="Raise an error" style="rounded=1;whiteSpace=wrap;html=1;" parent="1" vertex="1">
          <mxGeometry x="180" y="175" width="120" height="40" as="geometry" />
        </mxCell>
        <mxCell id="42JPqjy9gOeKUET9cwUp-4" value="" style="edgeStyle=orthogonalEdgeStyle;rounded=0;orthogonalLoop=1;jettySize=auto;html=1;" edge="1" parent="1" source="3pEV3JObnZuWQEla3P30-10" target="42JPqjy9gOeKUET9cwUp-3">
          <mxGeometry relative="1" as="geometry" />
        </mxCell>
        <mxCell id="3pEV3JObnZuWQEla3P30-10" value="Send to the server" style="rounded=1;whiteSpace=wrap;html=1;" parent="1" vertex="1">
          <mxGeometry x="40" y="260" width="120" height="40" as="geometry" />
        </mxCell>
        <mxCell id="3pEV3JObnZuWQEla3P30-11" value="" style="edgeStyle=orthogonalEdgeStyle;rounded=0;orthogonalLoop=1;jettySize=auto;html=1;entryX=0.5;entryY=0;entryDx=0;entryDy=0;" parent="1" source="3pEV3JObnZuWQEla3P30-12" target="3pEV3JObnZuWQEla3P30-13" edge="1">
          <mxGeometry relative="1" as="geometry">
            <mxPoint x="100" y="500" as="targetPoint" />
          </mxGeometry>
        </mxCell>
        <mxCell id="3pEV3JObnZuWQEla3P30-12" value="Once on turn, execute the file on testing input" style="whiteSpace=wrap;html=1;rounded=1;" parent="1" vertex="1">
          <mxGeometry x="40" y="400" width="120" height="60" as="geometry" />
        </mxCell>
        <mxCell id="3pEV3JObnZuWQEla3P30-13" value="Return the result of testing to the client" style="whiteSpace=wrap;html=1;rounded=1;" parent="1" vertex="1">
          <mxGeometry x="40" y="480" width="120" height="40" as="geometry" />
        </mxCell>
        <mxCell id="3pEV3JObnZuWQEla3P30-14" value="Yes" style="text;html=1;align=center;verticalAlign=middle;resizable=0;points=[];autosize=1;strokeColor=none;fillColor=none;" parent="1" vertex="1">
          <mxGeometry x="50" y="230" width="40" height="30" as="geometry" />
        </mxCell>
        <mxCell id="42JPqjy9gOeKUET9cwUp-5" value="" style="edgeStyle=orthogonalEdgeStyle;rounded=0;orthogonalLoop=1;jettySize=auto;html=1;" edge="1" parent="1" source="42JPqjy9gOeKUET9cwUp-3" target="3pEV3JObnZuWQEla3P30-12">
          <mxGeometry relative="1" as="geometry" />
        </mxCell>
        <mxCell id="42JPqjy9gOeKUET9cwUp-3" value="Enqueue submission" style="rounded=1;whiteSpace=wrap;html=1;" vertex="1" parent="1">
          <mxGeometry x="40" y="330" width="120" height="40" as="geometry" />
        </mxCell>
      </root>
    </mxGraphModel>
  </diagram>
</mxfile>
